<svg xmlns="http://www.w3.org/2000/svg" viewBox="0 0 60.7 60.6" style="enable-background:new 0 0 60.7 60.6" xml:space="preserve"><path d="M16 0H1.5C.7 0 0 .7 0 1.5v14.4c0 .8.7 1.5 1.5 1.5S3 16.8 3 15.9V3h13c.8 0 1.5-.7 1.5-1.5S16.8 0 16 0zM16 41.7H3v-13c0-.8-.7-1.5-1.5-1.5S0 27.9 0 28.7v14.4c0 .8.7 1.5 1.5 1.5H16c.8 0 1.5-.7 1.5-1.5s-.7-1.4-1.5-1.4zM43.2 0H28.7c-.8 0-1.5.7-1.5 1.5S27.9 3 28.7 3h12.9v13.1c0 .8.7 1.5 1.5 1.5s1.5-.7 1.5-1.5V1.5C44.7.7 44 0 43.2 0zM48.2 46.6V32.4c0-.8-.7-1.5-1.5-1.5s-1.5.7-1.5 1.5v12.7h-13c-.8 0-1.5.7-1.5 1.5s.7 1.5 1.5 1.5h14.5c.8 0 1.5-.6 1.5-1.5zM57.7 33.6c.7-.4 1-1.3.6-2-1.2-2.2-2.8-4.2-4.8-5.8-.6-.5-1.6-.5-2.1.1s-.5 1.6.1 2.1l.1.1c1.7 1.4 3 3 4.1 4.9.4.7 1.3 1 2 .6zM58.9 37.4c-.8.1-1.4.8-1.3 1.7.1.6.1 1.2.1 1.8 0 2.1-.4 4.3-1.2 6.3-.3.8.1 1.6.8 2 .8.3 1.6-.1 2-.8 1-2.3 1.4-4.9 1.4-7.4 0-.7 0-1.5-.1-2.2-.1-.9-.9-1.5-1.7-1.4zM32.2 23.4c-2.3 1.1-4.3 2.7-5.9 4.6-.6.6-.5 1.6.1 2.1.6.6 1.6.5 2.1-.1 1.4-1.6 3.1-3 5-3.9.8-.3 1.1-1.2.8-2-.3-.8-1.2-1.1-2-.8l-.1.1zM39.4 21.4c-.8.1-1.4.8-1.4 1.6s.8 1.4 1.6 1.4c2.1-.2 4.3.1 6.3.7.8.2 1.6-.2 1.9-1 .2-.8-.2-1.6-1-1.9-2.3-.8-4.9-1.1-7.4-.8zM24.5 41.9V41c0-1.8.3-3.6.9-5.4.3-.8-.1-1.6-.9-1.9-.8-.3-1.6.1-1.9.9-.7 2-1.1 4.2-1.1 6.3V42c0 .8.7 1.4 1.5 1.4s1.5-.7 1.5-1.5zM26 48c-.4-.7-1.3-1.1-2-.7s-1.1 1.3-.7 2c1.1 2.3 2.6 4.3 4.5 6.1.7.5 1.6.3 2.1-.3.4-.6.4-1.3-.1-1.9-1.6-1.5-2.9-3.2-3.8-5.2zM53 52.5c-1.5 1.5-3.3 2.8-5.2 3.6-.8.2-1.3 1-1.1 1.8.2.8 1 1.3 1.8 1.1.2 0 .3-.1.4-.2 2.3-1 4.4-2.5 6.2-4.3.6-.6.6-1.5 0-2.1-.6-.6-1.5-.6-2.1 0v.1zM41.5 57.6c-2.1.1-4.3-.3-6.3-1-.8-.3-1.6.1-1.9.9-.3.8.1 1.6.9 1.9 2.2.8 4.5 1.2 6.9 1.2h.6c.8 0 1.5-.7 1.5-1.5-.1-.9-.8-1.5-1.7-1.5z"/></svg>