<?xml version="1.0" encoding="utf-8"?>
<!-- Generator: Adobe Illustrator 25.2.3, SVG Export Plug-In . SVG Version: 6.00 Build 0)  -->
<svg version="1.1" id="Layer_1" xmlns="http://www.w3.org/2000/svg" xmlns:xlink="http://www.w3.org/1999/xlink" x="0px" y="0px"
	 viewBox="0 0 28 28" style="enable-background:new 0 0 28 28;" xml:space="preserve">
<g>
	<path d="M27,7h-2c-0.6,0-1-0.4-1-1s0.4-1,1-1h2c0.6,0,1,0.4,1,1S27.6,7,27,7z M4,22c0-0.6-0.4-1-1-1H1c-0.6,0-1,0.4-1,1s0.4,1,1,1
		h2C3.6,23,4,22.6,4,22z M8,27V7h9c0.6,0,1-0.4,1-1s-0.4-1-1-1H7C6.4,5,6,5.4,6,6v21c0,0.6,0.4,1,1,1S8,27.6,8,27z M22,22V1
		c0-0.6-0.4-1-1-1s-1,0.4-1,1v20h-9c-0.6,0-1,0.4-1,1s0.4,1,1,1h10C21.6,23,22,22.6,22,22z"/>
</g>
</svg>
