<svg xmlns="http://www.w3.org/2000/svg" viewBox="0 0 28 28" style="enable-background:new 0 0 28 28" xml:space="preserve"><path d="M4.3 21.3 8.6 17l-4.3-4.3c-.4-.4-.4-1 0-1.4s1-.4 1.4 0l5 5c.4.4.4 1 0 1.4l-5 5c-.2.2-.4.3-.7.3s-.5-.1-.7-.3c-.4-.4-.4-1 0-1.4zm5.7.7c0 .6.4 1 1 1h6c.6 0 1-.4 1-1s-.4-1-1-1h-6c-.6 0-1 .4-1 1z"/><path d="M25 0H3C1.3 0 0 1.3 0 3v22c0 1.7 1.3 3 3 3h22c1.7 0 3-1.3 3-3V3c0-1.7-1.3-3-3-3zM2 3c0-.6.4-1 1-1h22c.6 0 1 .4 1 1v3H2V3zm24 22c0 .6-.4 1-1 1H3c-.6 0-1-.4-1-1V8h24v17z"/></svg>