<svg xmlns="http://www.w3.org/2000/svg" viewBox="0 0 90.9 60.5" style="enable-background:new 0 0 90.9 60.5" xml:space="preserve"><path d="M31.3 40.6c-4.3-.2-8.2 1.5-9.8 4.2l-.4.7.3.7c1.3 3 4.9 5 9.2 5.3h.8c4 0 7.5-1.7 9-4.3l.4-.7-.3-.7c-1.2-2.9-4.8-4.9-9.2-5.2zm-.4 7.9c-2.7-.1-5.1-1.3-6.2-2.8 1.3-1.4 3.8-2.2 6.5-2.1 2.7.1 5.1 1.3 6.2 2.8-1.3 1.4-3.8 2.3-6.5 2.1zM58.6 51.5h.2c4.3-.1 8-2 9.4-4.9l.3-.7-.4-.7c-1.5-2.8-5.1-4.6-9.4-4.6h-.2c-4.3.1-8 2-9.4 4.9l-.3.7.4.7c1.6 2.8 5.2 4.6 9.4 4.6zm.1-7.9h.2c2.6 0 5 .9 6.2 2.3-1.2 1.5-3.7 2.5-6.3 2.5h-.2c-2.6 0-5-.9-6.2-2.3 1.2-1.4 3.6-2.4 6.3-2.5z"/><path d="M90.9 27.1c0-4.4-8.7-7.1-19.6-8.7-.1-1-.2-1.9-.3-2.8-.4-3.4-.8-6.9-1.3-11l-.1-1-1-.3C53.7-1 38.3-1 23 3.3l-1 .2-.1 1c-.6 4.3-1 7.6-1.5 11-.1.9-.2 1.9-.4 2.8-11.1 1.6-20 4.4-20 8.8 0 3.3 5.1 5.8 12.4 7.4v14.6c0 2.8 1.5 5.2 3.9 6.5 3.8 2.1 9.5 4.8 15 4.8 4.3 0 7.2-1.3 9.5-2.4 1.7-.8 3.1-1.4 4.6-1.4 1.4 0 2.8.6 4.5 1.4 2.4 1.1 5.5 2.4 9.6 2.4 5.4 0 11.2-2.7 15-4.8 2.4-1.3 3.9-3.8 3.9-6.5V34.5c7.4-1.7 12.5-4.1 12.5-7.4zm-15.4 22c0 1.7-.8 3.1-2.3 3.9-3.5 1.9-8.8 4.4-13.6 4.4-3.5 0-6.1-1.1-8.4-2.1-1.9-.8-3.7-1.6-5.7-1.6-2.2 0-4 .8-5.9 1.7-2.3 1-4.6 2.1-8.3 2.1-4.8 0-10-2.5-13.6-4.4-1.5-.8-2.3-2.2-2.3-3.9V35.6c12.2 1.8 21.2 2.5 30 2.5s17.8-.8 30-2.5c.1 0 .1 13.5.1 13.5zm-30-14.5C18 34.6 3 29.6 3 27.1c0-1.6 5.7-4.1 16.6-5.7-.2 1.6-.5 3.3-.7 5.2l3 .4c.6-4.3 1.1-7.7 1.5-11.1.4-3.1.8-6.2 1.4-10 14-3.8 27.9-3.8 41.6-.1-1.9 1.1-8.8 2.6-20.4 2.6-6.5 0-12.6-.5-16.8-1.5l-.7 2.9c4.3 1 10.7 1.5 17.4 1.5 3.1 0 15.8-.2 21.2-2.8.3 2.6.6 5 .9 7.3.4 3.4.8 6.9 1.3 11l3-.4c-.2-1.8-.4-3.5-.6-5.1C82.3 23 87.9 25.4 87.9 27c0 2.6-14.9 7.6-42.4 7.6z"/></svg>