<svg xmlns="http://www.w3.org/2000/svg" viewBox="0 0 50 48" style="enable-background:new 0 0 50 48" xml:space="preserve"><path d="M39 0H11C4.9 0 0 4.9 0 11s4.9 11 11 11h28c6.1 0 11-4.9 11-11S45.1 0 39 0zM11 20c-5 0-9-4-9-9s4-9 9-9h21.7C29.9 4 28 7.3 28 11s1.9 7 4.7 9H11zm28 0c-5 0-9-4-9-9s4-9 9-9 9 4 9 9-4 9-9 9zM39 26H11C4.9 26 0 30.9 0 37s4.9 11 11 11h28c6.1 0 11-4.9 11-11s-4.9-11-11-11zM2 37c0-5 4-9 9-9s9 4 9 9-4 9-9 9-9-4-9-9zm45.9 1.5c-.2-.3-.5-.5-.9-.5-.5 0-1 .5-1 1s.5 1 1 1c.2 0 .4-.1.5-.2-.9 2.7-3 4.8-5.7 5.7.1-.2.2-.3.2-.5 0-.5-.5-1-1-1s-1 .5-1 1c0 .4.2.7.5.9-.5 0-1 .1-1.5.1H17.3c2.8-2 4.7-5.3 4.7-9 0-2.2-.7-4.3-1.8-6 .5-.1.8-.5.8-1s-.5-1-1-1c-.4 0-.7.2-.9.6-.5-.6-1.1-1.1-1.8-1.6H39c1.6 0 3.1.4 4.5 1.2-.3.2-.5.5-.5.8 0 .5.5 1 1 1s.8-.3 1-.7c.6.5 1.2 1.2 1.6 1.9-.4.1-.6.4-.6.8 0 .5.5 1 1 1 .2 0 .3 0 .4-.1.4 1 .6 2 .6 3.1 0 .5 0 1-.1 1.5z"/><circle cx="23" cy="33" r="1"/><circle cx="26" cy="30" r="1"/><circle cx="32" cy="30" r="1"/><circle cx="29" cy="33" r="1"/><circle cx="35" cy="33" r="1"/><circle cx="38" cy="30" r="1"/><circle cx="41" cy="33" r="1"/><circle cx="23" cy="39" r="1"/><circle cx="23" cy="45" r="1"/><circle cx="26" cy="36" r="1"/><circle cx="32" cy="36" r="1"/><circle cx="26" cy="42" r="1"/><circle cx="32" cy="42" r="1"/><circle cx="29" cy="39" r="1"/><circle cx="35" cy="39" r="1"/><circle cx="29" cy="45" r="1"/><circle cx="35" cy="45" r="1"/><circle cx="38" cy="36" r="1"/><circle cx="44" cy="36" r="1"/><circle cx="38" cy="42" r="1"/><circle cx="44" cy="42" r="1"/><circle cx="41" cy="39" r="1"/></svg>